<?xml version="1.0" encoding="UTF-8"?>
<svg xmlns="http://www.w3.org/2000/svg" version="1.1" viewBox="0 0 500 500">
  <defs>
    <style>
      .cls-1 {
        fill: #FFBF00;
      }
    </style>
  </defs>
  <!-- Generator: Adobe Illustrator 28.7.7, SVG Export Plug-In . SVG Version: 1.2.0 Build 194)  -->
  <g>
    <g id="Layer_1">
      <g>
        <polygon class="cls-1" points="359.17 0 359.17 125 109.17 125 109.17 0 162.74 26.79 162.74 71.43 207.38 71.43 207.38 35.71 260.95 35.71 260.95 71.43 305.6 71.43 305.6 26.79 359.17 0"/>
        <path class="cls-1" d="M359.35,125l-17.86,17.86H127.03l-17.86-17.86h-53.39v285.71l178.57,89.29,178.57-89.29V125h-53.57ZM305.6,317.86l53.75,26.79v32.68h-.18v.36l-124.82,62.5-125-62.5v-.36h-.18v-198.75h250.18v62.5l-53.75,26.79v-35.71h-142.86v112.5l71.43,35.71,71.43-35.71v-26.79Z"/>
      </g>
    </g>
  </g>
</svg>
